<svg width="458" height="350" viewBox="0 0 458 350" fill="none" xmlns="http://www.w3.org/2000/svg">
<path d="M458 315C458 295.67 442.33 280 423 280H229V280C229 318.66 260.34 350 299 350H423C442.33 350 458 334.33 458 315V315Z" fill="#3D8CFF"/>
<path d="M458 175C458 155.67 442.33 140 423 140H229V140C229 178.66 260.34 210 299 210H423C442.33 210 458 194.33 458 175V175Z" fill="#3D8CFF"/>
<path d="M458 35C458 15.67 442.33 0 423 0H229V0C229 38.6599 260.34 70 299 70H423C442.33 70 458 54.33 458 35V35Z" fill="#3D8CFF"/>
<path d="M0 105C0 124.33 15.67 140 35 140H229V140C229 101.34 197.66 70 159 70H35C15.67 70 0 85.67 0 105V105Z" fill="#3D8CFF"/>
<path d="M0 245C0 264.33 15.67 280 35 280H229V280C229 241.34 197.66 210 159 210H35C15.67 210 0 225.67 0 245V245Z" fill="#3D8CFF"/>
</svg>
