<svg width="562" height="409" viewBox="0 0 562 409" fill="none" xmlns="http://www.w3.org/2000/svg">
<path fill-rule="evenodd" clip-rule="evenodd" d="M41.2048 368.739C68.6577 395.58 101.756 409 140.5 409H447.045C478.994 409.017 506.141 397.838 528.484 375.462C550.828 353.086 562 325.922 562 293.969C562.017 264.589 552.335 238.924 532.955 216.974C513.574 195.025 489.195 182.346 459.818 178.938C459.835 129.108 442.49 86.8273 407.782 52.0964C373.074 17.3655 330.814 0 281 0C240.553 0 204.364 12.1422 172.432 36.4266C140.5 60.7109 119.212 92.451 108.568 131.647C76.2106 138.89 50.0265 155.505 30.0159 181.494C10.0053 207.482 0 237.092 0 270.323C0.0170303 309.093 13.752 341.898 41.2048 368.739ZM132.65 335.525C111.759 335.158 95.0758 312.179 95.7132 281.731C96.3507 251.282 113.803 226.896 134.694 227.263C155.585 227.63 172.004 252.611 171.367 283.06C170.73 313.509 153.541 335.892 132.65 335.525ZM254.814 339.731C233.932 339.05 217.473 315.822 218.656 285.387C219.838 254.952 237.725 230.832 258.607 231.513C279.489 232.194 295.458 257.418 294.275 287.853C293.093 318.288 275.696 340.412 254.814 339.731Z" fill="#101010"/>
</svg>
